<svg xmlns="http://www.w3.org/2000/svg" width="216" height="209" viewBox="0 0 216 209" version="1.1"><path d="M 129 19.917 C 127.075 20.295, 123.968 21.368, 122.096 22.302 C 120.224 23.236, 118.199 24.015, 117.596 24.034 C 116.993 24.053, 114.700 24.937, 112.500 26 C 110.300 27.063, 107.375 27.957, 106 27.988 C 104.625 28.019, 102.375 28.924, 101 30 C 99.625 31.076, 97.803 31.966, 96.950 31.978 C 96.098 31.990, 94.973 32.425, 94.450 32.945 C 93.928 33.465, 90.125 35.650, 86 37.800 C 66.282 48.079, 60.378 51.306, 58.921 52.599 C 58.053 53.369, 56.885 54, 56.326 54 C 55.767 54, 54.495 54.900, 53.500 56 C 52.505 57.100, 51.297 58, 50.816 58 C 50.336 58, 47.043 60.250, 43.500 63 C 39.957 65.750, 36.688 68, 36.237 68 C 33.575 68, 18 88.762, 18 92.310 C 18 93.020, 17.605 94.028, 17.123 94.550 C 15.761 96.025, 13.185 104.706, 11.549 113.336 C 10.396 119.418, 10.271 123.335, 10.989 130.836 C 12.559 147.232, 20.574 168.404, 26.250 171.153 C 27.212 171.619, 28.788 172.453, 29.750 173.007 C 30.712 173.561, 32.625 174.547, 34 175.198 C 35.375 175.849, 37.400 177.139, 38.500 178.065 C 39.600 178.990, 42.525 180.863, 45 182.225 C 52.475 186.341, 56.557 188.990, 55.500 189.040 C 53.700 189.126, 62.447 191.936, 64.500 191.932 C 65.600 191.930, 70.775 193.085, 76 194.499 C 86.725 197.402, 102.747 198.923, 123.066 198.969 C 143.368 199.015, 149.265 197.601, 158.654 190.434 C 161.129 188.545, 164.241 186.727, 165.570 186.393 C 166.899 186.060, 167.777 185.449, 167.522 185.036 C 166.954 184.117, 181.393 171, 182.973 171 C 183.594 171, 184.797 169.312, 185.647 167.250 C 186.496 165.188, 188.260 162.600, 189.567 161.500 C 191.322 160.023, 192.203 157.832, 192.937 153.116 C 193.484 149.605, 194.573 146.005, 195.356 145.116 C 196.764 143.518, 199.990 119.681, 200.009 110.739 C 200.014 108.407, 198.823 101.344, 197.363 95.043 C 194.951 84.635, 194.247 82.987, 189.674 77.043 C 182.022 67.097, 180.045 65.135, 173 60.495 C 164.193 54.694, 158.940 52, 156.437 52 C 154.223 52, 143.316 47.953, 138.846 45.473 C 137.386 44.663, 135.523 44, 134.706 44 C 133.890 44, 132.203 43.175, 130.958 42.167 L 128.694 40.333 131.095 36.917 C 132.416 35.038, 135.410 31.382, 137.748 28.793 C 140.087 26.204, 142 23.481, 142 22.743 C 142 19.244, 137.459 18.257, 129 19.917 M 123 30.737 C 121.084 31.330, 109.141 35.976, 107.071 36.934 C 106.207 37.334, 104.001 38.413, 102.169 39.331 C 100.337 40.249, 98.290 41, 97.621 41 C 96.446 41, 87.169 45.542, 74.328 52.402 C 70.934 54.216, 65.870 57.342, 63.076 59.350 C 60.282 61.357, 57.750 63, 57.449 63 C 56.936 63, 51.661 66.441, 40.858 73.824 C 38.304 75.569, 35.951 77.560, 35.629 78.248 C 35.306 78.937, 33.911 81.300, 32.527 83.500 C 31.144 85.700, 29.493 88.625, 28.859 90 C 28.224 91.375, 26.197 95.757, 24.353 99.738 C 22.509 103.719, 21 108.309, 21 109.939 C 21 111.569, 20.325 115.494, 19.500 118.661 C 18.675 121.829, 18 126.269, 18 128.528 C 18 133.737, 21.341 146.594, 23.272 148.813 C 24.079 149.741, 24.917 150.950, 25.135 151.500 C 26.100 153.933, 30.271 160, 30.979 160 C 31.408 160, 33.628 162.475, 35.912 165.500 C 38.334 168.708, 40.840 171, 41.925 171 C 42.949 171, 44.018 171.604, 44.301 172.342 C 44.585 173.081, 46.320 174.417, 48.158 175.311 C 49.996 176.206, 52.850 177.849, 54.500 178.962 C 56.150 180.076, 58.423 180.990, 59.550 180.993 C 60.678 180.997, 62.028 181.414, 62.550 181.920 C 64.207 183.525, 75.150 186.979, 85.500 189.165 C 93.801 190.918, 99.237 191.296, 117.500 191.388 L 139.500 191.500 145.500 188.242 C 154.079 183.584, 154.873 183.039, 160.986 177.598 C 164.016 174.902, 167.668 172.202, 169.102 171.598 C 173.646 169.685, 180.984 159.289, 181.015 154.720 C 181.034 152.022, 181.962 150.552, 184.156 149.745 C 185.066 149.409, 186.042 147.867, 186.324 146.318 C 186.606 144.768, 187.615 139.432, 188.567 134.460 C 190.195 125.951, 190.199 124.603, 188.630 111.530 C 187.179 99.434, 186.618 97.188, 184.285 94.129 C 182.635 91.966, 181.490 89.058, 181.303 86.559 C 181.031 82.919, 180.111 81.647, 172.406 74.250 C 167.680 69.713, 163.243 66, 162.545 66 C 161.848 66, 158.002 64.200, 154 62 C 149.998 59.800, 146.171 58, 145.496 58 C 144.822 58, 143.197 57.184, 141.885 56.186 C 140.573 55.188, 137.031 53.329, 134.013 52.056 C 128.863 49.883, 122.475 45.773, 120.723 43.506 C 119.546 41.983, 120.726 37.193, 123.101 33.858 C 125.377 30.662, 125.356 30.009, 123 30.737 M 68.054 94.435 C 67.399 95.224, 67.007 97.361, 67.182 99.185 C 67.475 102.239, 67.801 102.525, 71.320 102.815 C 73.421 102.988, 75.783 102.595, 76.570 101.942 C 78.310 100.498, 78.448 95.848, 76.800 94.200 C 75.141 92.541, 69.500 92.693, 68.054 94.435 M 138.068 96.904 C 135.199 100.933, 135.361 104.752, 138.459 106.163 C 142.358 107.940, 146 105.048, 146 100.177 C 146 93.628, 141.672 91.843, 138.068 96.904 M 80.200 114.200 C 79.540 114.860, 79.003 115.873, 79.008 116.450 C 79.012 117.028, 82.865 121.775, 87.571 127 C 92.276 132.225, 97.630 138.750, 99.468 141.500 C 105.199 150.073, 110.421 155.220, 113.001 154.839 C 115.631 154.451, 115.919 153.990, 119.480 144.500 C 120.925 140.650, 122.951 136.324, 123.982 134.886 C 125.014 133.449, 126.147 130.735, 126.499 128.855 C 127.011 126.127, 126.711 125.048, 125.012 123.511 C 122.530 121.264, 119.702 122.352, 119.194 125.748 C 119.026 126.872, 118.013 128.583, 116.944 129.551 C 115.875 130.518, 115 131.773, 115 132.339 C 115 132.905, 114.037 135.359, 112.859 137.791 L 110.718 142.214 108.109 138.867 C 106.674 137.026, 103.527 133.398, 101.115 130.805 C 98.703 128.213, 96.228 125.085, 95.615 123.856 C 94.302 121.223, 84.491 113, 82.663 113 C 81.968 113, 80.860 113.540, 80.200 114.200" stroke="none" fill="#040404" fill-rule="evenodd"/><path d="M 117 32.730 C 115.075 33.612, 111.475 35.180, 109 36.215 C 106.525 37.251, 103.226 38.751, 101.669 39.549 C 100.112 40.347, 98.290 41, 97.621 41 C 96.446 41, 87.169 45.542, 74.328 52.402 C 70.934 54.216, 65.870 57.342, 63.076 59.350 C 60.282 61.357, 57.750 63, 57.449 63 C 56.936 63, 51.661 66.441, 40.858 73.824 C 38.304 75.569, 35.951 77.560, 35.629 78.248 C 35.306 78.937, 33.911 81.300, 32.527 83.500 C 31.144 85.700, 29.493 88.625, 28.859 90 C 28.224 91.375, 26.197 95.757, 24.353 99.738 C 22.509 103.719, 21 108.309, 21 109.939 C 21 111.569, 20.325 115.494, 19.500 118.661 C 18.675 121.829, 18 126.269, 18 128.528 C 18 133.737, 21.341 146.594, 23.272 148.813 C 24.079 149.741, 24.917 150.950, 25.135 151.500 C 26.100 153.933, 30.271 160, 30.979 160 C 31.408 160, 33.628 162.475, 35.912 165.500 C 38.334 168.708, 40.840 171, 41.925 171 C 42.949 171, 44.018 171.604, 44.301 172.342 C 44.585 173.081, 46.320 174.417, 48.158 175.311 C 49.996 176.206, 52.850 177.849, 54.500 178.962 C 56.150 180.076, 58.423 180.990, 59.550 180.993 C 60.678 180.997, 62.028 181.414, 62.550 181.920 C 64.207 183.525, 75.150 186.979, 85.500 189.165 C 93.801 190.918, 99.237 191.296, 117.500 191.388 L 139.500 191.500 145.500 188.242 C 154.079 183.584, 154.873 183.039, 160.986 177.598 C 164.016 174.902, 167.668 172.202, 169.102 171.598 C 173.646 169.685, 180.984 159.289, 181.015 154.720 C 181.034 152.022, 181.962 150.552, 184.156 149.745 C 185.066 149.409, 186.042 147.867, 186.324 146.318 C 186.606 144.768, 187.615 139.432, 188.567 134.460 C 190.195 125.951, 190.199 124.603, 188.630 111.530 C 187.179 99.434, 186.618 97.188, 184.285 94.129 C 182.635 91.966, 181.490 89.058, 181.303 86.559 C 181.031 82.919, 180.111 81.647, 172.406 74.250 C 167.680 69.713, 163.243 66, 162.545 66 C 161.848 66, 158.002 64.200, 154 62 C 149.998 59.800, 146.171 58, 145.496 58 C 144.822 58, 143.197 57.184, 141.885 56.186 C 140.573 55.188, 137.031 53.329, 134.013 52.056 C 128.863 49.883, 122.475 45.773, 120.723 43.506 C 119.553 41.992, 120.721 37.200, 123.060 33.916 L 125.136 31 122.818 31.064 C 121.543 31.099, 118.925 31.849, 117 32.730 M 68.054 94.435 C 67.399 95.224, 67.007 97.361, 67.182 99.185 C 67.475 102.239, 67.801 102.525, 71.320 102.815 C 73.421 102.988, 75.783 102.595, 76.570 101.942 C 78.310 100.498, 78.448 95.848, 76.800 94.200 C 75.141 92.541, 69.500 92.693, 68.054 94.435 M 138.068 96.904 C 135.199 100.933, 135.361 104.752, 138.459 106.163 C 142.358 107.940, 146 105.048, 146 100.177 C 146 93.628, 141.672 91.843, 138.068 96.904 M 80.200 114.200 C 79.540 114.860, 79.003 115.873, 79.008 116.450 C 79.012 117.028, 82.865 121.775, 87.571 127 C 92.276 132.225, 97.630 138.750, 99.468 141.500 C 105.199 150.073, 110.421 155.220, 113.001 154.839 C 115.631 154.451, 115.919 153.990, 119.480 144.500 C 120.925 140.650, 122.951 136.324, 123.982 134.886 C 125.014 133.449, 126.147 130.735, 126.499 128.855 C 127.011 126.127, 126.711 125.048, 125.012 123.511 C 122.530 121.264, 119.702 122.352, 119.194 125.748 C 119.026 126.872, 118.013 128.583, 116.944 129.551 C 115.875 130.518, 115 131.773, 115 132.339 C 115 132.905, 114.037 135.359, 112.859 137.791 L 110.718 142.214 108.109 138.867 C 106.674 137.026, 103.527 133.398, 101.115 130.805 C 98.703 128.213, 96.228 125.085, 95.615 123.856 C 94.302 121.223, 84.491 113, 82.663 113 C 81.968 113, 80.860 113.540, 80.200 114.200" stroke="none" fill="#fcfcfc" fill-rule="evenodd"/></svg>